<mxfile host="app.diagrams.net" agent="Mozilla/5.0 (Windows NT 10.0; Win64; x64) AppleWebKit/537.36 (KHTML, like Gecko) Chrome/128.0.0.0 Safari/537.36 OPR/114.0.0.0" version="25.0.3">
  <diagram name="หน้า-1" id="VKjuXc6XsJVYzgpCNObN">
    <mxGraphModel dx="893" dy="748" grid="1" gridSize="10" guides="1" tooltips="1" connect="1" arrows="1" fold="1" page="1" pageScale="1" pageWidth="827" pageHeight="1169" math="0" shadow="0">
      <root>
        <mxCell id="0" />
        <mxCell id="1" parent="0" />
        <mxCell id="xPOHnQ_ODUA5uZzSeB4c-6" value="" style="edgeStyle=orthogonalEdgeStyle;rounded=0;orthogonalLoop=1;jettySize=auto;html=1;" edge="1" parent="1" source="xPOHnQ_ODUA5uZzSeB4c-3" target="xPOHnQ_ODUA5uZzSeB4c-4">
          <mxGeometry relative="1" as="geometry" />
        </mxCell>
        <mxCell id="xPOHnQ_ODUA5uZzSeB4c-3" value="เริ่มต้น" style="rounded=1;whiteSpace=wrap;html=1;arcSize=50;" vertex="1" parent="1">
          <mxGeometry x="354" y="10" width="120" height="40" as="geometry" />
        </mxCell>
        <mxCell id="xPOHnQ_ODUA5uZzSeB4c-7" value="" style="edgeStyle=orthogonalEdgeStyle;rounded=0;orthogonalLoop=1;jettySize=auto;html=1;" edge="1" parent="1" source="xPOHnQ_ODUA5uZzSeB4c-4" target="xPOHnQ_ODUA5uZzSeB4c-5">
          <mxGeometry relative="1" as="geometry" />
        </mxCell>
        <mxCell id="xPOHnQ_ODUA5uZzSeB4c-4" value="สร้าง num มารับค่าจากผู้ใช้" style="rounded=0;whiteSpace=wrap;html=1;" vertex="1" parent="1">
          <mxGeometry x="319" y="90" width="190" height="40" as="geometry" />
        </mxCell>
        <mxCell id="xPOHnQ_ODUA5uZzSeB4c-9" value="" style="edgeStyle=orthogonalEdgeStyle;rounded=0;orthogonalLoop=1;jettySize=auto;html=1;" edge="1" parent="1" source="xPOHnQ_ODUA5uZzSeB4c-5" target="xPOHnQ_ODUA5uZzSeB4c-8">
          <mxGeometry relative="1" as="geometry" />
        </mxCell>
        <mxCell id="xPOHnQ_ODUA5uZzSeB4c-5" value="สร้าง n = 1, m = 1, sum = 0, total&lt;div&gt;เพื่อเก็บค่าแลำคำนวณ&lt;/div&gt;" style="rounded=0;whiteSpace=wrap;html=1;" vertex="1" parent="1">
          <mxGeometry x="319" y="180" width="190" height="80" as="geometry" />
        </mxCell>
        <mxCell id="xPOHnQ_ODUA5uZzSeB4c-11" value="" style="edgeStyle=orthogonalEdgeStyle;rounded=0;orthogonalLoop=1;jettySize=auto;html=1;" edge="1" parent="1" source="xPOHnQ_ODUA5uZzSeB4c-18" target="xPOHnQ_ODUA5uZzSeB4c-10">
          <mxGeometry relative="1" as="geometry" />
        </mxCell>
        <mxCell id="xPOHnQ_ODUA5uZzSeB4c-8" value="สร้าง&amp;nbsp;allsum&amp;nbsp; เพื่อเก็บผลรวม" style="rounded=0;whiteSpace=wrap;html=1;" vertex="1" parent="1">
          <mxGeometry x="319" y="330" width="190" height="40" as="geometry" />
        </mxCell>
        <mxCell id="xPOHnQ_ODUA5uZzSeB4c-13" value="" style="edgeStyle=orthogonalEdgeStyle;rounded=0;orthogonalLoop=1;jettySize=auto;html=1;" edge="1" parent="1" source="xPOHnQ_ODUA5uZzSeB4c-10" target="xPOHnQ_ODUA5uZzSeB4c-12">
          <mxGeometry relative="1" as="geometry" />
        </mxCell>
        <mxCell id="xPOHnQ_ODUA5uZzSeB4c-10" value="รับค่า num" style="shape=parallelogram;perimeter=parallelogramPerimeter;whiteSpace=wrap;html=1;fixedSize=1;" vertex="1" parent="1">
          <mxGeometry x="329" y="500" width="170" height="40" as="geometry" />
        </mxCell>
        <mxCell id="xPOHnQ_ODUA5uZzSeB4c-15" value="" style="edgeStyle=orthogonalEdgeStyle;rounded=0;orthogonalLoop=1;jettySize=auto;html=1;" edge="1" parent="1" source="xPOHnQ_ODUA5uZzSeB4c-12" target="xPOHnQ_ODUA5uZzSeB4c-14">
          <mxGeometry relative="1" as="geometry" />
        </mxCell>
        <mxCell id="xPOHnQ_ODUA5uZzSeB4c-12" value="แสดงข้อความ Series =&amp;nbsp;&lt;div&gt;และค่า n, m&lt;/div&gt;" style="shape=parallelogram;perimeter=parallelogramPerimeter;whiteSpace=wrap;html=1;fixedSize=1;" vertex="1" parent="1">
          <mxGeometry x="314" y="600" width="200" height="70" as="geometry" />
        </mxCell>
        <mxCell id="xPOHnQ_ODUA5uZzSeB4c-17" value="" style="edgeStyle=orthogonalEdgeStyle;rounded=0;orthogonalLoop=1;jettySize=auto;html=1;" edge="1" parent="1" source="xPOHnQ_ODUA5uZzSeB4c-14" target="xPOHnQ_ODUA5uZzSeB4c-16">
          <mxGeometry relative="1" as="geometry" />
        </mxCell>
        <mxCell id="xPOHnQ_ODUA5uZzSeB4c-14" value="sum = n + m" style="rounded=0;whiteSpace=wrap;html=1;" vertex="1" parent="1">
          <mxGeometry x="319" y="740" width="190" height="40" as="geometry" />
        </mxCell>
        <mxCell id="xPOHnQ_ODUA5uZzSeB4c-21" value="" style="edgeStyle=orthogonalEdgeStyle;rounded=0;orthogonalLoop=1;jettySize=auto;html=1;" edge="1" parent="1" source="xPOHnQ_ODUA5uZzSeB4c-16" target="xPOHnQ_ODUA5uZzSeB4c-20">
          <mxGeometry relative="1" as="geometry" />
        </mxCell>
        <mxCell id="xPOHnQ_ODUA5uZzSeB4c-16" value="allsum = sum" style="rounded=0;whiteSpace=wrap;html=1;" vertex="1" parent="1">
          <mxGeometry x="319" y="840" width="190" height="40" as="geometry" />
        </mxCell>
        <mxCell id="xPOHnQ_ODUA5uZzSeB4c-19" value="" style="edgeStyle=orthogonalEdgeStyle;rounded=0;orthogonalLoop=1;jettySize=auto;html=1;" edge="1" parent="1" source="xPOHnQ_ODUA5uZzSeB4c-8" target="xPOHnQ_ODUA5uZzSeB4c-18">
          <mxGeometry relative="1" as="geometry">
            <mxPoint x="414" y="370" as="sourcePoint" />
            <mxPoint x="414" y="500" as="targetPoint" />
          </mxGeometry>
        </mxCell>
        <mxCell id="xPOHnQ_ODUA5uZzSeB4c-18" value="สร้าง i ใช้วนลูป" style="rounded=0;whiteSpace=wrap;html=1;" vertex="1" parent="1">
          <mxGeometry x="319" y="410" width="190" height="40" as="geometry" />
        </mxCell>
        <mxCell id="xPOHnQ_ODUA5uZzSeB4c-23" value="" style="edgeStyle=orthogonalEdgeStyle;rounded=0;orthogonalLoop=1;jettySize=auto;html=1;" edge="1" parent="1" source="xPOHnQ_ODUA5uZzSeB4c-20" target="xPOHnQ_ODUA5uZzSeB4c-22">
          <mxGeometry relative="1" as="geometry" />
        </mxCell>
        <mxCell id="xPOHnQ_ODUA5uZzSeB4c-20" value="i = 2" style="rounded=0;whiteSpace=wrap;html=1;" vertex="1" parent="1">
          <mxGeometry x="319" y="940" width="190" height="40" as="geometry" />
        </mxCell>
        <mxCell id="xPOHnQ_ODUA5uZzSeB4c-25" value="" style="edgeStyle=orthogonalEdgeStyle;rounded=0;orthogonalLoop=1;jettySize=auto;html=1;" edge="1" parent="1" source="xPOHnQ_ODUA5uZzSeB4c-22" target="xPOHnQ_ODUA5uZzSeB4c-24">
          <mxGeometry relative="1" as="geometry" />
        </mxCell>
        <mxCell id="xPOHnQ_ODUA5uZzSeB4c-22" value="" style="ellipse;whiteSpace=wrap;html=1;aspect=fixed;" vertex="1" parent="1">
          <mxGeometry x="399" y="1050" width="30" height="30" as="geometry" />
        </mxCell>
        <mxCell id="xPOHnQ_ODUA5uZzSeB4c-27" value="" style="edgeStyle=orthogonalEdgeStyle;rounded=0;orthogonalLoop=1;jettySize=auto;html=1;" edge="1" parent="1" source="xPOHnQ_ODUA5uZzSeB4c-24" target="xPOHnQ_ODUA5uZzSeB4c-26">
          <mxGeometry relative="1" as="geometry" />
        </mxCell>
        <mxCell id="xPOHnQ_ODUA5uZzSeB4c-46" value="เท็จ" style="edgeLabel;html=1;align=center;verticalAlign=middle;resizable=0;points=[];" vertex="1" connectable="0" parent="xPOHnQ_ODUA5uZzSeB4c-27">
          <mxGeometry x="-0.1704" relative="1" as="geometry">
            <mxPoint as="offset" />
          </mxGeometry>
        </mxCell>
        <mxCell id="xPOHnQ_ODUA5uZzSeB4c-32" value="" style="edgeStyle=orthogonalEdgeStyle;rounded=0;orthogonalLoop=1;jettySize=auto;html=1;" edge="1" parent="1" source="xPOHnQ_ODUA5uZzSeB4c-24" target="xPOHnQ_ODUA5uZzSeB4c-31">
          <mxGeometry relative="1" as="geometry" />
        </mxCell>
        <mxCell id="xPOHnQ_ODUA5uZzSeB4c-45" value="จริง" style="edgeLabel;html=1;align=center;verticalAlign=middle;resizable=0;points=[];" vertex="1" connectable="0" parent="xPOHnQ_ODUA5uZzSeB4c-32">
          <mxGeometry x="-0.226" y="3" relative="1" as="geometry">
            <mxPoint as="offset" />
          </mxGeometry>
        </mxCell>
        <mxCell id="xPOHnQ_ODUA5uZzSeB4c-24" value="i &lt; num" style="rhombus;whiteSpace=wrap;html=1;" vertex="1" parent="1">
          <mxGeometry x="374" y="1160" width="80" height="80" as="geometry" />
        </mxCell>
        <mxCell id="xPOHnQ_ODUA5uZzSeB4c-29" value="" style="edgeStyle=orthogonalEdgeStyle;rounded=0;orthogonalLoop=1;jettySize=auto;html=1;" edge="1" parent="1" source="xPOHnQ_ODUA5uZzSeB4c-26" target="xPOHnQ_ODUA5uZzSeB4c-28">
          <mxGeometry relative="1" as="geometry" />
        </mxCell>
        <mxCell id="xPOHnQ_ODUA5uZzSeB4c-26" value="แสดงค่า sum" style="shape=parallelogram;perimeter=parallelogramPerimeter;whiteSpace=wrap;html=1;fixedSize=1;" vertex="1" parent="1">
          <mxGeometry x="329" y="1330" width="170" height="40" as="geometry" />
        </mxCell>
        <mxCell id="xPOHnQ_ODUA5uZzSeB4c-28" value="จบ" style="rounded=1;whiteSpace=wrap;html=1;arcSize=50;" vertex="1" parent="1">
          <mxGeometry x="354" y="1430" width="120" height="40" as="geometry" />
        </mxCell>
        <mxCell id="xPOHnQ_ODUA5uZzSeB4c-38" value="" style="edgeStyle=orthogonalEdgeStyle;rounded=0;orthogonalLoop=1;jettySize=auto;html=1;" edge="1" parent="1" source="xPOHnQ_ODUA5uZzSeB4c-31" target="xPOHnQ_ODUA5uZzSeB4c-33">
          <mxGeometry relative="1" as="geometry" />
        </mxCell>
        <mxCell id="xPOHnQ_ODUA5uZzSeB4c-31" value="แสดง + และค่า sum" style="shape=parallelogram;perimeter=parallelogramPerimeter;whiteSpace=wrap;html=1;fixedSize=1;" vertex="1" parent="1">
          <mxGeometry x="530" y="1180" width="170" height="40" as="geometry" />
        </mxCell>
        <mxCell id="xPOHnQ_ODUA5uZzSeB4c-39" value="" style="edgeStyle=orthogonalEdgeStyle;rounded=0;orthogonalLoop=1;jettySize=auto;html=1;" edge="1" parent="1" source="xPOHnQ_ODUA5uZzSeB4c-33" target="xPOHnQ_ODUA5uZzSeB4c-34">
          <mxGeometry relative="1" as="geometry" />
        </mxCell>
        <mxCell id="xPOHnQ_ODUA5uZzSeB4c-33" value="allsum += sum" style="rounded=0;whiteSpace=wrap;html=1;" vertex="1" parent="1">
          <mxGeometry x="520" y="1270" width="190" height="40" as="geometry" />
        </mxCell>
        <mxCell id="xPOHnQ_ODUA5uZzSeB4c-40" value="" style="edgeStyle=orthogonalEdgeStyle;rounded=0;orthogonalLoop=1;jettySize=auto;html=1;" edge="1" parent="1" source="xPOHnQ_ODUA5uZzSeB4c-35" target="xPOHnQ_ODUA5uZzSeB4c-36">
          <mxGeometry relative="1" as="geometry" />
        </mxCell>
        <mxCell id="xPOHnQ_ODUA5uZzSeB4c-34" value="total = sum" style="rounded=0;whiteSpace=wrap;html=1;" vertex="1" parent="1">
          <mxGeometry x="520" y="1350" width="190" height="40" as="geometry" />
        </mxCell>
        <mxCell id="xPOHnQ_ODUA5uZzSeB4c-42" value="" style="edgeStyle=orthogonalEdgeStyle;rounded=0;orthogonalLoop=1;jettySize=auto;html=1;" edge="1" parent="1" source="xPOHnQ_ODUA5uZzSeB4c-36" target="xPOHnQ_ODUA5uZzSeB4c-37">
          <mxGeometry relative="1" as="geometry" />
        </mxCell>
        <mxCell id="xPOHnQ_ODUA5uZzSeB4c-36" value="m = total" style="rounded=0;whiteSpace=wrap;html=1;" vertex="1" parent="1">
          <mxGeometry x="520" y="1500" width="190" height="40" as="geometry" />
        </mxCell>
        <mxCell id="xPOHnQ_ODUA5uZzSeB4c-44" style="edgeStyle=orthogonalEdgeStyle;rounded=0;orthogonalLoop=1;jettySize=auto;html=1;exitX=0.5;exitY=1;exitDx=0;exitDy=0;entryX=1;entryY=0.5;entryDx=0;entryDy=0;" edge="1" parent="1" source="xPOHnQ_ODUA5uZzSeB4c-37" target="xPOHnQ_ODUA5uZzSeB4c-22">
          <mxGeometry relative="1" as="geometry">
            <Array as="points">
              <mxPoint x="615" y="1640" />
              <mxPoint x="780" y="1640" />
              <mxPoint x="780" y="1065" />
            </Array>
          </mxGeometry>
        </mxCell>
        <mxCell id="xPOHnQ_ODUA5uZzSeB4c-37" value="i + 1" style="rounded=0;whiteSpace=wrap;html=1;" vertex="1" parent="1">
          <mxGeometry x="520" y="1580" width="190" height="40" as="geometry" />
        </mxCell>
        <mxCell id="xPOHnQ_ODUA5uZzSeB4c-41" value="" style="edgeStyle=orthogonalEdgeStyle;rounded=0;orthogonalLoop=1;jettySize=auto;html=1;" edge="1" parent="1" source="xPOHnQ_ODUA5uZzSeB4c-34" target="xPOHnQ_ODUA5uZzSeB4c-35">
          <mxGeometry relative="1" as="geometry">
            <mxPoint x="615" y="1390" as="sourcePoint" />
            <mxPoint x="615" y="1500" as="targetPoint" />
          </mxGeometry>
        </mxCell>
        <mxCell id="xPOHnQ_ODUA5uZzSeB4c-35" value="sum += m" style="rounded=0;whiteSpace=wrap;html=1;" vertex="1" parent="1">
          <mxGeometry x="520" y="1430" width="190" height="40" as="geometry" />
        </mxCell>
      </root>
    </mxGraphModel>
  </diagram>
</mxfile>
